<svg width="302" height="102" viewBox="0 0 302 102" fill="none" xmlns="http://www.w3.org/2000/svg">
<path fill-rule="evenodd" clip-rule="evenodd" d="M114.032 17.1847C110.702 15.3197 98.1794 0 78.9964 0.26643V15.8526C110.968 18.2504 109.902 57.4156 78.9964 58.7478V73.4014H150V0C142.806 0.399645 135.48 2.53108 129.085 5.3286C121.625 8.52575 119.094 11.5897 114.165 17.0515L114.032 17.1847Z" fill="white"/>
<path fill-rule="evenodd" clip-rule="evenodd" d="M0 73.2686L71.0036 73.4018V58.7481C65.1421 57.8156 58.881 57.416 54.4849 52.8867C50.0888 48.4906 47.6909 44.0945 47.5577 37.4338C47.4245 30.773 50.0888 26.2437 54.4849 21.9808C59.2806 17.3183 64.7425 16.7854 71.0036 15.5865V0.133571C64.6092 -0.399288 56.4831 2.66465 51.0213 5.59538C42.0959 10.3911 41.5631 13.0554 36.1012 17.0519C34.9023 16.1194 34.103 14.5208 33.0373 13.4551C26.2433 5.99503 8.9254 -0.266073 0 0.133571V73.2686Z" fill="white"/>
<path fill-rule="evenodd" clip-rule="evenodd" d="M71.0036 50.7549V23.8455C63.0107 23.0462 56.2167 29.0408 56.0835 37.0337C55.9503 45.0266 62.8774 51.5542 71.0036 50.6217V50.7549Z" fill="white"/>
<path fill-rule="evenodd" clip-rule="evenodd" d="M78.8632 50.8883C98.7123 50.8883 99.1119 23.9789 78.8632 23.8457V50.8883Z" fill="white"/>
<path d="M3.6936 82.4258V95.4285H8.7085V82.4258H10.6204V95.4285H15.6052V82.4258H17.5271V97H1.76172V82.4258H3.6936ZM20.9905 97V82.4258H25.7551C27.3367 82.4258 28.5245 82.7528 29.3186 83.4067C30.1194 84.0607 30.5198 85.0283 30.5198 86.3096C30.5198 86.9902 30.3263 87.5942 29.9392 88.1213C29.5522 88.6418 29.025 89.0456 28.3577 89.3325C29.1451 89.5527 29.7657 89.9731 30.2195 90.5938C30.6799 91.2077 30.9102 91.9417 30.9102 92.7959C30.9102 94.1038 30.4864 95.1315 29.6389 95.8789C28.7914 96.6263 27.5936 97 26.0454 97H20.9905ZM22.9124 90.1833V95.4285H26.0854C26.9797 95.4285 27.6837 95.1982 28.1975 94.7378C28.718 94.2707 28.9783 93.63 28.9783 92.8159C28.9783 91.0609 28.024 90.1833 26.1155 90.1833H22.9124ZM22.9124 88.6418H25.8152C26.656 88.6418 27.3267 88.4316 27.8271 88.0112C28.3343 87.5908 28.5879 87.0203 28.5879 86.2996C28.5879 85.4988 28.3543 84.9182 27.8872 84.5579C27.4201 84.1908 26.7094 84.0073 25.7551 84.0073H22.9124V88.6418ZM42.001 90.2634H35.6848V95.4285H43.022V97H33.7629V82.4258H42.9219V84.0073H35.6848V88.6919H42.001V90.2634ZM54.6033 82.4258H56.5251V97H54.6033V85.769L47.4263 97H45.4944V82.4258H47.4263V93.6567L54.6033 82.4258ZM54.0627 78.8022C54.0627 79.6097 53.7858 80.2603 53.2319 80.7542C52.6847 81.2413 51.964 81.4849 51.0698 81.4849C50.1756 81.4849 49.4516 81.238 48.8977 80.7441C48.3438 80.2503 48.0669 79.603 48.0669 78.8022H49.5784C49.5784 79.2694 49.7052 79.6364 49.9587 79.9033C50.2123 80.1636 50.5827 80.2937 51.0698 80.2937C51.5369 80.2937 51.9006 80.1636 52.1609 79.9033C52.4278 79.6431 52.5613 79.276 52.5613 78.8022H54.0627ZM71.2295 97H69.2976V90.2634H61.9504V97H60.0286V82.4258H61.9504V88.6919H69.2976V82.4258H71.2295V97ZM76.6548 88.3716H80.2783C81.7998 88.3916 82.9876 88.782 83.8418 89.5427C84.696 90.3035 85.123 91.3378 85.123 92.6458C85.123 93.9604 84.6926 95.0081 83.8318 95.7888C82.9709 96.5696 81.7965 96.9733 80.3083 97H74.7329V82.4258H76.6548V88.3716ZM76.6548 89.9531V95.4285H80.1682C81.1225 95.4285 81.8632 95.1749 82.3904 94.6677C82.9242 94.1606 83.1912 93.4799 83.1912 92.6257C83.1912 91.8049 82.9342 91.1576 82.4204 90.6838C81.9132 90.21 81.1892 89.9665 80.2483 89.9531H76.6548ZM88.8066 97H86.8848V82.4258H88.8066V97ZM101.569 82.4258H103.491V97H101.569V85.769L94.3921 97H92.4602V82.4258H94.3921V93.6567L101.569 82.4258ZM101.029 78.8022C101.029 79.6097 100.752 80.2603 100.198 80.7542C99.6506 81.2413 98.9299 81.4849 98.0356 81.4849C97.1414 81.4849 96.4174 81.238 95.8635 80.7441C95.3097 80.2503 95.0327 79.603 95.0327 78.8022H96.5442C96.5442 79.2694 96.671 79.6364 96.9246 79.9033C97.1781 80.1636 97.5485 80.2937 98.0356 80.2937C98.5028 80.2937 98.8665 80.1636 99.1267 79.9033C99.3936 79.6431 99.5271 79.276 99.5271 78.8022H101.029ZM112.139 82.4258H114.071V95.4285H121.258V82.4258H123.18V95.3884H124.712L124.531 100.513H122.8V97H112.139V82.4258ZM135.312 90.2634H128.996V95.4285H136.333V97H127.074V82.4258H136.233V84.0073H128.996V88.6919H135.312V90.2634ZM143.48 88.0112L146.973 82.4258H149.236L144.631 89.6528L149.346 97H147.063L143.48 91.3145L139.876 97H137.604L142.329 89.6528L137.714 82.4258H139.967L143.48 88.0112Z" fill="white"/>
<path d="M168.225 7.42578L171.969 17.9961L175.692 7.42578H179.636V22H176.623V18.0161L176.924 11.1394L172.99 22H170.928L167.004 11.1494L167.304 18.0161V22H164.301V7.42578H168.225ZM194.23 15.0432C194.23 16.4779 193.977 17.7358 193.47 18.8169C192.963 19.8979 192.235 20.7321 191.288 21.3193C190.347 21.9066 189.266 22.2002 188.044 22.2002C186.837 22.2002 185.759 21.9099 184.811 21.3293C183.864 20.7488 183.13 19.9213 182.609 18.8469C182.089 17.7659 181.825 16.5247 181.818 15.1233V14.4026C181.818 12.9679 182.075 11.7066 182.589 10.6189C183.11 9.5245 183.84 8.68701 184.781 8.10645C185.729 7.51921 186.81 7.22559 188.024 7.22559C189.239 7.22559 190.317 7.51921 191.258 8.10645C192.205 8.68701 192.936 9.5245 193.45 10.6189C193.97 11.7066 194.23 12.9645 194.23 14.3926V15.0432ZM191.188 14.3826C191.188 12.8544 190.914 11.6933 190.367 10.8992C189.819 10.1051 189.039 9.70801 188.024 9.70801C187.017 9.70801 186.239 10.1017 185.692 10.8892C185.145 11.6699 184.868 12.8177 184.861 14.3325V15.0432C184.861 16.5313 185.135 17.6858 185.682 18.5066C186.229 19.3274 187.017 19.7378 188.044 19.7378C189.052 19.7378 189.826 19.3441 190.367 18.5566C190.907 17.7625 191.181 16.6081 191.188 15.0933V14.3826ZM207.854 17.1453C207.74 18.7135 207.16 19.948 206.112 20.8489C205.071 21.7498 203.696 22.2002 201.988 22.2002C200.12 22.2002 198.648 21.5729 197.574 20.3184C196.506 19.0571 195.972 17.3288 195.972 15.1333V14.2424C195.972 12.8411 196.219 11.6065 196.713 10.5388C197.207 9.47111 197.911 8.65365 198.825 8.08643C199.746 7.51253 200.814 7.22559 202.028 7.22559C203.71 7.22559 205.064 7.67603 206.092 8.5769C207.12 9.47778 207.714 10.7424 207.874 12.3706H204.871C204.797 11.4297 204.534 10.749 204.08 10.3286C203.633 9.90153 202.949 9.68799 202.028 9.68799C201.027 9.68799 200.276 10.0483 199.776 10.769C199.282 11.4831 199.028 12.5942 199.015 14.1023V15.2034C199.015 16.7782 199.252 17.9294 199.726 18.6567C200.206 19.3841 200.96 19.7478 201.988 19.7478C202.916 19.7478 203.606 19.5376 204.06 19.1172C204.521 18.6901 204.784 18.0328 204.851 17.1453H207.854ZM214.58 16.0442H212.849V22H209.846V7.42578H212.849V13.2615H214.22L217.783 7.42578H221.447L216.953 14.3225L221.917 22H218.334L214.58 16.0442ZM234.73 15.0432C234.73 16.4779 234.476 17.7358 233.969 18.8169C233.462 19.8979 232.735 20.7321 231.787 21.3193C230.846 21.9066 229.765 22.2002 228.544 22.2002C227.336 22.2002 226.258 21.9099 225.311 21.3293C224.363 20.7488 223.629 19.9213 223.109 18.8469C222.588 17.7659 222.325 16.5247 222.318 15.1233V14.4026C222.318 12.9679 222.575 11.7066 223.089 10.6189C223.609 9.5245 224.34 8.68701 225.281 8.10645C226.228 7.51921 227.309 7.22559 228.524 7.22559C229.738 7.22559 230.816 7.51921 231.757 8.10645C232.705 8.68701 233.435 9.5245 233.949 10.6189C234.47 11.7066 234.73 12.9645 234.73 14.3926V15.0432ZM231.687 14.3826C231.687 12.8544 231.413 11.6933 230.866 10.8992C230.319 10.1051 229.538 9.70801 228.524 9.70801C227.516 9.70801 226.739 10.1017 226.192 10.8892C225.644 11.6699 225.368 12.8177 225.361 14.3325V15.0432C225.361 16.5313 225.634 17.6858 226.182 18.5066C226.729 19.3274 227.516 19.7378 228.544 19.7378C229.552 19.7378 230.326 19.3441 230.866 18.5566C231.407 17.7625 231.68 16.6081 231.687 15.0933V14.3826ZM236.912 22V7.42578H242.017C243.785 7.42578 245.127 7.76611 246.041 8.44678C246.955 9.12077 247.412 10.1117 247.412 11.4197C247.412 12.1337 247.229 12.7643 246.862 13.3115C246.495 13.8521 245.984 14.2491 245.33 14.5027C246.078 14.6895 246.665 15.0666 247.092 15.6338C247.526 16.201 247.743 16.895 247.743 17.7158C247.743 19.1172 247.296 20.1782 246.401 20.8989C245.507 21.6196 244.233 21.9867 242.578 22H236.912ZM239.915 15.6538V19.5876H242.488C243.195 19.5876 243.745 19.4208 244.139 19.0872C244.54 18.7468 244.74 18.2797 244.74 17.6858C244.74 16.3512 244.049 15.6738 242.668 15.6538H239.915ZM239.915 13.5317H242.137C243.652 13.505 244.409 12.9011 244.409 11.72C244.409 11.0593 244.216 10.5855 243.829 10.2986C243.448 10.005 242.845 9.85815 242.017 9.85815H239.915V13.5317ZM261.446 17.1453C261.333 18.7135 260.752 19.948 259.704 20.8489C258.663 21.7498 257.289 22.2002 255.58 22.2002C253.712 22.2002 252.24 21.5729 251.166 20.3184C250.098 19.0571 249.564 17.3288 249.564 15.1333V14.2424C249.564 12.8411 249.811 11.6065 250.305 10.5388C250.799 9.47111 251.503 8.65365 252.417 8.08643C253.338 7.51253 254.406 7.22559 255.62 7.22559C257.302 7.22559 258.657 7.67603 259.684 8.5769C260.712 9.47778 261.306 10.7424 261.466 12.3706H258.463C258.39 11.4297 258.126 10.749 257.672 10.3286C257.225 9.90153 256.541 9.68799 255.62 9.68799C254.619 9.68799 253.869 10.0483 253.368 10.769C252.874 11.4831 252.621 12.5942 252.607 14.1023V15.2034C252.607 16.7782 252.844 17.9294 253.318 18.6567C253.799 19.3841 254.553 19.7478 255.58 19.7478C256.508 19.7478 257.199 19.5376 257.652 19.1172C258.113 18.6901 258.376 18.0328 258.443 17.1453H261.446ZM268.173 16.0442H266.441V22H263.438V7.42578H266.441V13.2615H267.812L271.376 7.42578H275.039L270.545 14.3225L275.51 22H271.926L268.173 16.0442ZM284.899 18.9971H279.634L278.633 22H275.44L280.865 7.42578H283.648L289.103 22H285.91L284.899 18.9971ZM280.445 16.5647H284.088L282.256 11.1094L280.445 16.5647ZM297.201 22V16.7449H294.759L292.126 22H288.883L291.996 15.7839C290.494 14.9565 289.744 13.6719 289.744 11.9302C289.744 10.5021 290.211 9.39771 291.145 8.61694C292.079 7.83618 293.384 7.43913 295.059 7.42578H300.214V22H297.201ZM292.747 12.1504C292.747 12.9645 292.943 13.5551 293.337 13.9221C293.738 14.2891 294.335 14.4727 295.129 14.4727H297.201V9.85815H295.129C293.541 9.85815 292.747 10.6222 292.747 12.1504ZM172.86 32.7271H173.04C174.181 32.7271 175.212 32.9806 176.133 33.4878C177.06 33.9883 177.781 34.7023 178.295 35.6299C178.809 36.5575 179.066 37.6118 179.066 38.793C179.066 40.5413 178.505 41.9694 177.384 43.0771C176.27 44.1849 174.761 44.7388 172.86 44.7388V46.6006H169.967V44.7388H169.777C168.622 44.7388 167.581 44.4919 166.654 43.998C165.726 43.4976 165.005 42.7969 164.491 41.896C163.984 40.9951 163.731 39.9674 163.731 38.813C163.731 37.6452 163.984 36.6008 164.491 35.6799C164.999 34.759 165.709 34.0417 166.624 33.5278C167.538 33.0073 168.559 32.7404 169.687 32.7271H169.967V30.8252H172.86V32.7271ZM169.777 35.2195C168.782 35.2195 167.998 35.5331 167.424 36.1604C166.857 36.7877 166.573 37.6719 166.573 38.813C166.573 39.8807 166.857 40.7215 167.424 41.3354C167.992 41.9427 168.789 42.2463 169.817 42.2463H169.967V35.2195H169.777ZM172.86 35.2195V42.2463H173.06C174.041 42.2463 174.812 41.9394 175.372 41.3254C175.939 40.7048 176.223 39.8607 176.223 38.793C176.223 37.6785 175.946 36.8044 175.392 36.1704C174.838 35.5365 174.044 35.2195 173.01 35.2195H172.86ZM189.266 42.9971H184L183 46H179.806L185.232 31.4258H188.014L193.47 46H190.277L189.266 42.9971ZM184.811 40.5647H188.455L186.623 35.1094L184.811 40.5647ZM204.34 33.8582H197.834V36.6809H200.176C201.891 36.6809 203.249 37.098 204.25 37.9321C205.258 38.7596 205.762 39.8774 205.762 41.2854C205.762 42.7001 205.261 43.8379 204.26 44.6987C203.266 45.5529 201.941 45.9867 200.286 46H194.801V31.4258H204.34V33.8582ZM197.834 39.1033V43.5876H200.226C200.994 43.5876 201.604 43.3774 202.058 42.957C202.519 42.5366 202.749 41.9727 202.749 41.2654C202.749 40.6047 202.529 40.0842 202.088 39.7039C201.654 39.3168 201.057 39.1166 200.296 39.1033H197.834ZM210.687 40.865V46H207.684V31.4258H213.369C214.464 31.4258 215.424 31.626 216.252 32.0264C217.086 32.4268 217.727 32.9973 218.174 33.738C218.621 34.4721 218.844 35.3096 218.844 36.2505C218.844 37.6785 218.354 38.8063 217.373 39.6338C216.399 40.4546 215.047 40.865 213.319 40.865H210.687ZM210.687 38.4326H213.369C214.163 38.4326 214.767 38.2458 215.181 37.8721C215.601 37.4984 215.812 36.9645 215.812 36.2705C215.812 35.5565 215.601 34.9792 215.181 34.5388C214.76 34.0984 214.18 33.8715 213.439 33.8582H210.687V38.4326ZM229.655 31.4258H232.668V46H229.655V36.3206L223.819 46H220.816V31.4258H223.819V41.1252L229.655 31.4258ZM240.025 40.0442H238.293V46H235.291V31.4258H238.293V37.2615H239.665L243.228 31.4258H246.892L242.397 38.3225L247.362 46H243.779L240.025 40.0442ZM256.751 42.9971H251.486L250.485 46H247.292L252.718 31.4258H255.5L260.956 46H257.762L256.751 42.9971ZM252.297 40.5647H255.941L254.109 35.1094L252.297 40.5647ZM168.225 55.4258L171.969 65.9961L175.692 55.4258H179.636V70H176.623V66.0161L176.924 59.1394L172.99 70H170.928L167.004 59.1494L167.304 66.0161V70H164.301V55.4258H168.225ZM191.027 63.6838H185.262V67.5876H192.028V70H182.259V55.4258H192.008V57.8582H185.262V61.3315H191.027V63.6838ZM203.299 57.8582H196.793V60.6809H199.135C200.85 60.6809 202.208 61.098 203.209 61.9321C204.217 62.7596 204.721 63.8774 204.721 65.2854C204.721 66.7001 204.22 67.8379 203.219 68.6987C202.225 69.5529 200.9 69.9867 199.245 70H193.76V55.4258H203.299V57.8582ZM196.793 63.1033V67.5876H199.185C199.953 67.5876 200.563 67.3774 201.017 66.957C201.478 66.5366 201.708 65.9727 201.708 65.2654C201.708 64.6047 201.488 64.0842 201.047 63.7039C200.613 63.3168 200.016 63.1166 199.255 63.1033H196.793ZM215.411 63.6838H209.646V67.5876H216.412V70H206.643V55.4258H216.392V57.8582H209.646V61.3315H215.411V63.6838ZM230.025 55.4258V70H227.012V57.8582H223.129L222.888 63.0032C222.788 64.7382 222.568 66.1062 222.228 67.1072C221.887 68.1015 221.39 68.8322 220.736 69.2993C220.082 69.7598 219.188 69.9933 218.054 70H217.273V67.5876L217.773 67.5376C218.528 67.4375 219.065 67.0037 219.385 66.2363C219.712 65.4622 219.919 64.0876 220.006 62.1123L220.256 55.4258H230.025ZM241.386 55.4258H244.399V70H241.386V60.3206L235.551 70H232.548V55.4258H235.551V65.1252L241.386 55.4258Z" fill="white"/>
</svg>
