<svg width="65" height="65" viewBox="0 0 65 65" fill="none" xmlns="http://www.w3.org/2000/svg">
<g filter="url(#filter0_d_73_2)">
<circle cx="32.5" cy="28.5" r="24.5" fill="white"/>
<circle cx="32.5" cy="28.5" r="24" stroke="#DBDBDB"/>
</g>
<path d="M45.7919 35.271C45.7165 35.1448 45.2503 34.1317 43.0068 32.0494C40.6581 29.869 40.9736 30.2231 43.8025 26.4529C45.5255 24.1568 46.2143 22.7546 45.9987 22.1552C45.7937 21.5838 44.5264 21.7345 44.5264 21.7345L40.3128 21.7591C40.3128 21.7591 40.0008 21.717 39.7677 21.8555C39.5416 21.9922 39.3961 22.3077 39.3961 22.3077C39.3961 22.3077 38.7283 24.085 37.838 25.5958C35.9608 28.7841 35.2088 28.9523 34.9021 28.7543C34.1887 28.2933 34.3675 26.8999 34.3675 25.9113C34.3675 22.8213 34.8355 21.533 33.4543 21.2C32.9951 21.0895 32.6586 21.0159 31.486 21.0037C29.9822 20.9879 28.7079 21.0089 27.9875 21.3612C27.5073 21.5961 27.1374 22.1202 27.3636 22.1499C27.6422 22.1868 28.2732 22.32 28.608 22.7757C29.0409 23.3628 29.0252 24.6844 29.0252 24.6844C29.0252 24.6844 29.274 28.3214 28.445 28.7736C27.8754 29.0838 27.0954 28.4511 25.4215 25.5573C24.5644 24.0762 23.9159 22.4374 23.9159 22.4374C23.9159 22.4374 23.7915 22.1324 23.5689 21.9694C23.2989 21.7714 22.9203 21.7083 22.9203 21.7083L18.9136 21.7328C18.9136 21.7328 18.3124 21.7503 18.0915 22.0115C17.8952 22.2446 18.0758 22.7248 18.0758 22.7248C18.0758 22.7248 21.2132 30.0636 24.7642 33.7636C28.0226 37.1552 31.7209 36.9326 31.7209 36.9326H33.3965C33.3965 36.9326 33.903 36.8765 34.1607 36.5978C34.3991 36.3419 34.3903 35.8617 34.3903 35.8617C34.3903 35.8617 34.357 33.6129 35.4016 33.2816C36.4305 32.9556 37.7521 35.455 39.1525 36.4173C40.2112 37.1447 41.0157 36.9852 41.0157 36.9852L44.7613 36.9326C44.7613 36.9326 46.7209 36.8117 45.7919 35.271Z" fill="#037CD1"/>
<defs>
<filter id="filter0_d_73_2" x="0" y="0" width="65" height="65" filterUnits="userSpaceOnUse" color-interpolation-filters="sRGB">
<feFlood flood-opacity="0" result="BackgroundImageFix"/>
<feColorMatrix in="SourceAlpha" type="matrix" values="0 0 0 0 0 0 0 0 0 0 0 0 0 0 0 0 0 0 127 0" result="hardAlpha"/>
<feOffset dy="4"/>
<feGaussianBlur stdDeviation="4"/>
<feComposite in2="hardAlpha" operator="out"/>
<feColorMatrix type="matrix" values="0 0 0 0 0 0 0 0 0 0 0 0 0 0 0 0 0 0 0.15 0"/>
<feBlend mode="normal" in2="BackgroundImageFix" result="effect1_dropShadow_73_2"/>
<feBlend mode="normal" in="SourceGraphic" in2="effect1_dropShadow_73_2" result="shape"/>
</filter>
</defs>
</svg>
